<svg viewBox="0 0 44.1042 44.8104" x="0" y="0" fill="none" xmlns="http://www.w3.org/2000/svg"><g id="Cart" data-node-id="1567:833" xmlns="http://www.w3.org/2000/svg"><ellipse id="Ellipse 759_2" data-node-id="1567:834" cx="22.052099999999996" cy="22.405199999999994" rx="21.5521" ry="21.9052" fill="#FFC0CB"/><g id="Bag" data-node-id="1567:835"><path id="Vector_12" data-node-id="1567:836" fill-rule="evenodd" clip-rule="evenodd" d="M17.5481,32.039h8.33c3.059,0 5.406,-1.123 4.74,-5.6434l-0.777,-6.1266c-0.411,-2.2557 -1.826,-3.119 -3.068,-3.119h-10.156c-1.261,0 -2.594,0.9283 -3.069,3.119l-0.776,6.1266c-0.566,4.0104 1.717,5.6434 4.776,5.6434z" stroke="#1D1E20" stroke-width="1.5" stroke-linecap="round" stroke-linejoin="round"/><path id="Vector_13" data-node-id="1567:837" d="M17.4111,16.9272c0,-2.4198 1.93,-4.3814 4.311,-4.3814c1.147,-0.0049 2.248,0.4545 3.06,1.2767c0.813,0.8222 1.269,1.9395 1.269,3.1047" stroke="#1D1E20" stroke-width="1.5" stroke-linecap="round" stroke-linejoin="round"/><path id="Vector_14" data-node-id="1567:838" d="M18.7631,21.4943h0.047" stroke="#1D1E20" stroke-width="1.5" stroke-linecap="round" stroke-linejoin="round"/><path id="Vector_15" data-node-id="1567:839" d="M24.5811,21.4943h0.046" stroke="#1D1E20" stroke-width="1.5" stroke-linecap="round" stroke-linejoin="round"/></g></g></svg>